<mxfile host="www.draw.io" modified="2019-12-05T10:05:17.639Z" agent="Mozilla/5.0 (Windows NT 6.1; Win64; x64) AppleWebKit/537.36 (KHTML, like Gecko) Chrome/77.0.3865.90 Safari/537.36" etag="8-uME5iqCbyGUSjFTfCi" version="12.3.6" type="github" pages="1">
  <diagram id="6XqF5Jxo2gLk2P1CnMZ3" name="第 1 页">
    <mxGraphModel dx="854" dy="478" grid="1" gridSize="10" guides="1" tooltips="1" connect="1" arrows="1" fold="1" page="1" pageScale="1" pageWidth="827" pageHeight="1169" math="0" shadow="0">
      <root>
        <mxCell id="0"/>
        <mxCell id="1" parent="0"/>
        <mxCell id="cYALtAWKvASxNSb3xu1R-1" value="&lt;font style=&quot;font-size: 14px&quot;&gt;安&lt;br&gt;全&lt;br&gt;保&lt;br&gt;障&lt;br&gt;体&lt;br&gt;系&lt;/font&gt;" style="rounded=0;whiteSpace=wrap;html=1;" vertex="1" parent="1">
          <mxGeometry x="20" y="20" width="30" height="430" as="geometry"/>
        </mxCell>
        <mxCell id="cYALtAWKvASxNSb3xu1R-2" value="" style="rounded=0;whiteSpace=wrap;html=1;" vertex="1" parent="1">
          <mxGeometry x="60" y="20" width="500" height="60" as="geometry"/>
        </mxCell>
        <mxCell id="cYALtAWKvASxNSb3xu1R-3" value="" style="rounded=0;whiteSpace=wrap;html=1;" vertex="1" parent="1">
          <mxGeometry x="570" y="20" width="120" height="430" as="geometry"/>
        </mxCell>
        <mxCell id="cYALtAWKvASxNSb3xu1R-4" value="&lt;font style=&quot;font-size: 14px&quot;&gt;运维保障体系&lt;/font&gt;" style="rounded=0;whiteSpace=wrap;html=1;" vertex="1" parent="1">
          <mxGeometry x="20" y="460" width="670" height="40" as="geometry"/>
        </mxCell>
        <mxCell id="cYALtAWKvASxNSb3xu1R-5" value="&lt;font style=&quot;font-size: 14px&quot;&gt;标&lt;br&gt;准&lt;br&gt;规&lt;br&gt;范&lt;br&gt;保&lt;br&gt;障&lt;br&gt;体&lt;br&gt;系&lt;/font&gt;" style="rounded=0;whiteSpace=wrap;html=1;" vertex="1" parent="1">
          <mxGeometry x="700" y="20" width="30" height="480" as="geometry"/>
        </mxCell>
        <mxCell id="cYALtAWKvASxNSb3xu1R-6" value="UI用户层" style="text;html=1;strokeColor=none;fillColor=none;align=center;verticalAlign=middle;whiteSpace=wrap;rounded=0;" vertex="1" parent="1">
          <mxGeometry x="290" y="20" width="50" height="20" as="geometry"/>
        </mxCell>
      </root>
    </mxGraphModel>
  </diagram>
</mxfile>
